<svg width="300" height="45" viewBox="0 0 300 45" fill="none" xmlns="http://www.w3.org/2000/svg">
<rect width="300" height="45" rx="6" fill="#FEE500"/>
<g clip-path="url(#clip0_957_1138)">
<path opacity="0.902" fill-rule="evenodd" clip-rule="evenodd" d="M29 14.444C24.29 14.444 20 18.23 20 21.433C20 23.833 21.558 25.95 23.931 27.208L22.933 30.874C22.844 31.199 23.213 31.457 23.496 31.27L27.873 28.365C28.242 28.401 28.618 28.422 29 28.422C33.97 28.422 38 25.293 38 21.433C38 18.23 33.97 14.444 29 14.444Z" fill="black"/>
</g>
<path d="M121.149 17.647C121.11 19.851 120.593 21.6828 119.597 23.1425C118.601 24.5925 117.19 25.7573 115.363 26.637L114.682 25.8105C116.857 24.8728 118.384 23.4712 119.264 21.6055L114.986 21.9825L114.754 20.982L119.612 20.692C119.824 20.0057 119.95 19.2952 119.989 18.5605H115.291V17.647H121.149ZM124.295 16.342V21.533H126.369V22.4755H124.295V29.015H123.193V16.342H124.295ZM133.694 17.647C133.656 19.851 133.139 21.6828 132.143 23.1425C131.147 24.5925 129.736 25.7573 127.909 26.637L127.227 25.8105C129.402 24.8728 130.93 23.4712 131.809 21.6055L127.532 21.9825L127.3 20.982L132.157 20.692C132.37 20.0057 132.496 19.2952 132.534 18.5605H127.836V17.647H133.694ZM136.841 16.342V21.533H138.914V22.4755H136.841V29.015H135.739V16.342H136.841ZM149.923 20.5905C149.923 21.5572 149.556 22.3498 148.821 22.9685C148.096 23.5872 147.12 23.9352 145.892 24.0125V26.4195H151.083V27.3475H139.643V26.4195H144.79V24.0125C143.572 23.9255 142.601 23.5775 141.876 22.9685C141.151 22.3498 140.788 21.5572 140.788 20.5905C140.788 19.5465 141.204 18.7103 142.035 18.082C142.876 17.4537 143.978 17.1395 145.341 17.1395C146.724 17.1395 147.83 17.4537 148.662 18.082C149.503 18.7103 149.923 19.5465 149.923 20.5905ZM147.893 22.4465C148.541 21.9825 148.865 21.3687 148.865 20.605C148.865 19.8413 148.546 19.2275 147.908 18.7635C147.27 18.2995 146.414 18.0675 145.341 18.0675C144.288 18.0675 143.442 18.2995 142.804 18.7635C142.175 19.2275 141.861 19.8413 141.861 20.605C141.861 21.3687 142.175 21.9825 142.804 22.4465C143.442 22.9008 144.288 23.128 145.341 23.128C146.405 23.128 147.255 22.9008 147.893 22.4465ZM163.629 27.4055H152.189V26.4775H157.336V24.317H153.595V20.3585H161.106V18.3285H153.581V17.4005H162.208V21.272H154.697V23.389H162.571V24.317H158.438V26.4775H163.629V27.4055ZM178.984 29.015H177.867V16.342H178.984V29.015ZM176.258 25.129L175.562 25.97C174.924 25.535 174.3 24.9598 173.691 24.2445C173.082 23.5195 172.662 22.8042 172.43 22.0985C172.207 22.8622 171.801 23.6162 171.212 24.3605C170.632 25.0952 169.96 25.7332 169.196 26.2745L168.471 25.448C169.428 24.8487 170.231 24.0222 170.878 22.9685C171.526 21.9052 171.85 20.8273 171.85 19.735V17.444H172.966V19.6915C172.966 20.8032 173.28 21.852 173.909 22.838C174.547 23.8143 175.33 24.578 176.258 25.129ZM181.162 18.1835V17.2555H188.079V18.1835H185.193C185.193 18.5605 185.198 18.7925 185.208 18.8795C185.256 19.6528 185.585 20.3682 186.194 21.0255C186.803 21.6732 187.494 22.1227 188.267 22.374L187.658 23.2585C187.039 23.0072 186.445 22.6205 185.875 22.0985C185.304 21.5765 184.889 21.0352 184.628 20.4745C184.454 21.0545 184.052 21.649 183.424 22.258C182.796 22.8573 182.134 23.3068 181.438 23.6065L180.8 22.751C181.65 22.432 182.399 21.9052 183.047 21.1705C183.695 20.4358 184.033 19.6673 184.062 18.865C184.062 18.8457 184.062 18.7587 184.062 18.604C184.072 18.4493 184.077 18.3092 184.077 18.1835H181.162ZM182.656 24.5345H190.834V29.0295H189.732V25.448H182.656V24.5345ZM192.748 20.692H190.819V23.8675H189.717V16.342H190.819V19.764H192.748V20.692ZM205.438 22.6205H203.379V29.015H202.277V16.342H203.379V21.6925H205.438V22.6205ZM199.189 18.1545H195.462V17.212H199.189V18.1545ZM201.059 20.3005H193.577V19.387H201.059V20.3005ZM200.305 23.737C200.305 24.4813 200.03 25.1048 199.479 25.6075C198.928 26.1005 198.217 26.347 197.347 26.347C196.477 26.347 195.767 26.1005 195.216 25.6075C194.665 25.1145 194.389 24.491 194.389 23.737C194.389 22.983 194.665 22.3595 195.216 21.8665C195.767 21.3638 196.477 21.1125 197.347 21.1125C198.217 21.1125 198.928 21.3638 199.479 21.8665C200.03 22.3595 200.305 22.983 200.305 23.737ZM199.203 23.737C199.203 23.2343 199.029 22.8283 198.681 22.519C198.333 22.2 197.889 22.0405 197.347 22.0405C196.816 22.0405 196.371 22.2 196.013 22.519C195.665 22.838 195.491 23.244 195.491 23.737C195.491 24.23 195.665 24.636 196.013 24.955C196.371 25.274 196.816 25.4335 197.347 25.4335C197.889 25.4335 198.333 25.274 198.681 24.955C199.029 24.636 199.203 24.23 199.203 23.737ZM216.534 29.015H215.432V16.342H216.534V29.015ZM212.808 17.6905C212.779 19.6722 212.223 21.4363 211.14 22.983C210.067 24.52 208.671 25.6945 206.95 26.5065L206.312 25.6365C207.878 24.9502 209.125 23.9787 210.053 22.722C210.991 21.4557 211.517 20.0878 211.633 18.6185H206.776V17.6905H212.808Z" fill="black"/>
<defs>
<clipPath id="clip0_957_1138">
<rect width="18" height="18" fill="white" transform="translate(20 13.5)"/>
</clipPath>
</defs>
</svg>
