<svg width="300" height="45" viewBox="0 0 300 45" fill="none" xmlns="http://www.w3.org/2000/svg">
<rect width="300" height="45" rx="6" fill="#FEE500"/>
<g clip-path="url(#clip0_932_1265)">
<path opacity="0.902" fill-rule="evenodd" clip-rule="evenodd" d="M29 14.444C24.29 14.444 20 18.23 20 21.433C20 23.833 21.558 25.95 23.931 27.208L22.933 30.874C22.844 31.199 23.213 31.457 23.496 31.27L27.873 28.365C28.242 28.401 28.618 28.422 29 28.422C33.97 28.422 38 25.293 38 21.433C38 18.23 33.97 14.444 29 14.444Z" fill="black"/>
</g>
<path d="M133.649 17.647C133.61 19.851 133.093 21.6828 132.097 23.1425C131.101 24.5925 129.69 25.7573 127.863 26.637L127.182 25.8105C129.357 24.8728 130.884 23.4712 131.764 21.6055L127.486 21.9825L127.254 20.982L132.112 20.692C132.324 20.0057 132.45 19.2952 132.489 18.5605H127.791V17.647H133.649ZM136.795 16.342V21.533H138.869V22.4755H136.795V29.015H135.693V16.342H136.795ZM146.194 17.647C146.156 19.851 145.639 21.6828 144.643 23.1425C143.647 24.5925 142.236 25.7573 140.409 26.637L139.727 25.8105C141.902 24.8728 143.43 23.4712 144.309 21.6055L140.032 21.9825L139.8 20.982L144.657 20.692C144.87 20.0057 144.996 19.2952 145.034 18.5605H140.336V17.647H146.194ZM149.341 16.342V21.533H151.414V22.4755H149.341V29.015H148.239V16.342H149.341ZM162.423 20.5905C162.423 21.5572 162.056 22.3498 161.321 22.9685C160.596 23.5872 159.62 23.9352 158.392 24.0125V26.4195H163.583V27.3475H152.143V26.4195H157.29V24.0125C156.072 23.9255 155.101 23.5775 154.376 22.9685C153.651 22.3498 153.288 21.5572 153.288 20.5905C153.288 19.5465 153.704 18.7103 154.535 18.082C155.376 17.4537 156.478 17.1395 157.841 17.1395C159.224 17.1395 160.33 17.4537 161.162 18.082C162.003 18.7103 162.423 19.5465 162.423 20.5905ZM160.393 22.4465C161.041 21.9825 161.365 21.3687 161.365 20.605C161.365 19.8413 161.046 19.2275 160.408 18.7635C159.77 18.2995 158.914 18.0675 157.841 18.0675C156.788 18.0675 155.942 18.2995 155.304 18.7635C154.675 19.2275 154.361 19.8413 154.361 20.605C154.361 21.3687 154.675 21.9825 155.304 22.4465C155.942 22.9008 156.788 23.128 157.841 23.128C158.905 23.128 159.755 22.9008 160.393 22.4465ZM179.938 27.4055H168.498V26.4775H173.645V24.317H169.904V20.3585H177.415V18.3285H169.89V17.4005H178.517V21.272H171.006V23.389H178.88V24.317H174.747V26.4775H179.938V27.4055ZM192.484 27.1445H181.044V26.2165H192.484V27.1445ZM190.846 17.763C190.846 20.8853 190.657 23.3842 190.28 25.2595L189.178 25.1145C189.536 23.4615 189.715 21.3155 189.715 18.6765H182.233V17.763H190.846ZM203.943 25.593H202.841V16.342H203.943V25.593ZM204.262 28.5945H195.678V24.6795H196.78V27.681H204.262V28.5945ZM197.273 17.183C198.249 17.183 199.061 17.4778 199.709 18.0675C200.366 18.6572 200.695 19.416 200.695 20.344C200.695 21.272 200.371 22.0308 199.723 22.6205C199.075 23.2005 198.263 23.4905 197.287 23.4905C196.311 23.4905 195.494 23.2005 194.837 22.6205C194.189 22.0405 193.865 21.2865 193.865 20.3585C193.865 19.4305 194.189 18.6717 194.837 18.082C195.494 17.4827 196.306 17.183 197.273 17.183ZM197.273 18.14C196.596 18.14 196.035 18.3478 195.591 18.7635C195.146 19.1792 194.924 19.706 194.924 20.344C194.924 20.9723 195.146 21.4943 195.591 21.91C196.045 22.316 196.61 22.519 197.287 22.519C197.983 22.519 198.549 22.316 198.984 21.91C199.428 21.504 199.651 20.9868 199.651 20.3585C199.651 19.7012 199.428 19.1695 198.984 18.7635C198.549 18.3478 197.978 18.14 197.273 18.14Z" fill="black"/>
<defs>
<clipPath id="clip0_932_1265">
<rect width="18" height="18" fill="white" transform="translate(20 13.5)"/>
</clipPath>
</defs>
</svg>
